<?xml version="1.0" encoding="utf-8"?>
<!-- Generator: Adobe Illustrator 17.1.0, SVG Export Plug-In . SVG Version: 6.00 Build 0)  -->
<!DOCTYPE svg PUBLIC "-//W3C//DTD SVG 1.1//EN" "http://www.w3.org/Graphics/SVG/1.1/DTD/svg11.dtd">
<svg version="1.1" id="Layer_1" xmlns="http://www.w3.org/2000/svg" xmlns:xlink="http://www.w3.org/1999/xlink" x="0px" y="0px"
	 viewBox="0 83.2 288 265.7" enable-background="new 0 83.2 288 265.7" xml:space="preserve">
<g>
	<g>
		<path fill="none" stroke="#7A7A7A" stroke-width="15" stroke-linejoin="round" stroke-miterlimit="10" d="M107,280.7
			c-28.2-28.2-28.2-74.1,0-102.3s74.1-28.2,102.3,0"/>
		
			<line fill="none" stroke="#7A7A7A" stroke-width="15" stroke-linecap="round" stroke-linejoin="round" stroke-miterlimit="10" x1="26" y1="229.8" x2="44.8" y2="229.8"/>
		
			<line fill="none" stroke="#7A7A7A" stroke-width="15" stroke-linecap="round" stroke-linejoin="round" stroke-miterlimit="10" x1="26" y1="229.8" x2="51.1" y2="229.8"/>
		
			<line fill="none" stroke="#7A7A7A" stroke-width="15" stroke-linecap="round" stroke-linejoin="round" stroke-miterlimit="10" x1="157.8" y1="98" x2="157.8" y2="116.8"/>
		
			<line fill="none" stroke="#7A7A7A" stroke-width="15" stroke-linecap="round" stroke-linejoin="round" stroke-miterlimit="10" x1="157.8" y1="98" x2="157.8" y2="123.1"/>
		
			<line fill="none" stroke="#7A7A7A" stroke-width="15" stroke-linecap="round" stroke-linejoin="round" stroke-miterlimit="10" x1="63.7" y1="135.7" x2="80" y2="152"/>
		
			<line fill="none" stroke="#7A7A7A" stroke-width="15" stroke-linecap="round" stroke-linejoin="round" stroke-miterlimit="10" x1="63.7" y1="135.7" x2="83.8" y2="155.8"/>
		
			<line fill="none" stroke="#7A7A7A" stroke-width="15" stroke-linecap="round" stroke-linejoin="round" stroke-miterlimit="10" x1="83.8" y1="303.9" x2="67.4" y2="320.2"/>
		
			<line fill="none" stroke="#7A7A7A" stroke-width="15" stroke-linecap="round" stroke-linejoin="round" stroke-miterlimit="10" x1="252" y1="135.7" x2="235.7" y2="152"/>
		
			<polyline fill="none" stroke="#7A7A7A" stroke-width="15" stroke-linecap="round" stroke-linejoin="round" stroke-miterlimit="10" points="
			252,135.7 231.9,155.8 83.8,303.9 63.7,324 		"/>
		<g>
			<g>
				<path fill="none" stroke="#7A7A7A" stroke-width="15" stroke-linejoin="round" d="M209.9,179c3.1,3.1,5.5,6.2,8,9.3"/>
				<path fill="none" stroke="#7A7A7A" stroke-width="15" stroke-linejoin="round" stroke-dasharray="3.7142,3.7142" d="
					M219.3,190.6c0,0,7.7,13.2,10.8,21c7.8,25.4,2.3,57-17.8,76.5c-29.6,28.8-60.2,23.8-86.1,10c-6.6-4.8-9.9-8.4-9.9-8.4"/>
				<path fill="none" stroke="#7A7A7A" stroke-width="15" stroke-linejoin="round" d="M116.2,289c-3.1-2.5-6.2-5-9.2-8.1"/>
			</g>
		</g>
	</g>
</g>
</svg>
