<?xml version="1.0" encoding="utf-8"?>
<!-- Generator: Adobe Illustrator 17.1.0, SVG Export Plug-In . SVG Version: 6.00 Build 0)  -->
<!DOCTYPE svg PUBLIC "-//W3C//DTD SVG 1.1//EN" "http://www.w3.org/Graphics/SVG/1.1/DTD/svg11.dtd">
<svg version="1.1" id="Layer_1" xmlns="http://www.w3.org/2000/svg" xmlns:xlink="http://www.w3.org/1999/xlink" x="0px" y="0px"
	 viewBox="0 58 288 266" enable-background="new 0 58 288 266" xml:space="preserve">
<g>
	<g>
		<path fill="none" stroke="#6A952F" stroke-width="15" stroke-linecap="round" stroke-linejoin="round" stroke-miterlimit="10" d="
			M96,252H69.8c-28,0-51.4-22.2-51.8-50.2C17.6,173.2,40.5,150,69,150c14.4,0,27,6,36,15c-1.8-6.6-3-13.8-3-21
			c0-41.2,35.1-74.7,76.9-71.8c37.9,2.6,70.1,36.1,62.6,73.5v3.3c19.5,7.3,28.4,26.6,28.5,45.7c0.2,31.5-26.4,57.3-57.9,57.3H198"/>
		<path fill="none" stroke="#BBDD8C" stroke-width="15" stroke-linecap="round" stroke-miterlimit="10" d="M180,274.2
			c0,18-15,33-33,33s-33-15-33-33s33-59.4,33-59.4S180,256.2,180,274.2z"/>
	</g>
</g>
</svg>
