<?xml version="1.0" encoding="utf-8"?>
<!-- Generator: Adobe Illustrator 17.1.0, SVG Export Plug-In . SVG Version: 6.00 Build 0)  -->
<!DOCTYPE svg PUBLIC "-//W3C//DTD SVG 1.1//EN" "http://www.w3.org/Graphics/SVG/1.1/DTD/svg11.dtd">
<svg version="1.1" id="Layer_1" xmlns="http://www.w3.org/2000/svg" xmlns:xlink="http://www.w3.org/1999/xlink" x="0px" y="0px"
	 viewBox="0 83.2 288 265.7" enable-background="new 0 83.2 288 265.7" xml:space="preserve">
<g>
	<g>
		<path fill="none" stroke="#7A7A7A" stroke-width="15" stroke-linecap="round" stroke-linejoin="round" stroke-miterlimit="10" d="
			M213,276c31.2,0,57-25.8,57-57c0-19.2-9.6-36-24-46.8c0-1.2,0-3,0-4.2c0-39.6-32.4-72-72-72s-72,32.4-72,72c0,7.2,1.2,14.4,3,21
			c-9-9-21.6-15-36-15c-28.2,0-51,22.8-51,51s22.8,51,51,51"/>
		
			<polygon fill="none" stroke="#7A7A7A" stroke-width="15" stroke-linecap="round" stroke-linejoin="round" stroke-miterlimit="10" points="
			132,210 110.4,270 139.2,267 120,336 174.6,252 150,252 180,210 		"/>
	</g>
</g>
</svg>
