<?xml version="1.0" encoding="utf-8"?>
<!-- Generator: Adobe Illustrator 17.1.0, SVG Export Plug-In . SVG Version: 6.00 Build 0)  -->
<!DOCTYPE svg PUBLIC "-//W3C//DTD SVG 1.1//EN" "http://www.w3.org/Graphics/SVG/1.1/DTD/svg11.dtd">
<svg version="1.1" id="Layer_1" xmlns="http://www.w3.org/2000/svg" xmlns:xlink="http://www.w3.org/1999/xlink" x="0px" y="0px"
	 viewBox="0 83.2 288 265.7" enable-background="new 0 83.2 288 265.7" xml:space="preserve">
<title>Artboard 1 copy 31</title>
<path fill="#7A7A7A" d="M265.7,233c-22.8,0-45.6-32.4-45.8-32.7c-1.2-1.6-3.5-1.9-5.1-0.6c-1.5,1.1-1.8,3.2-0.9,4.7
	c8,11.3,18,21.1,29.6,28.8h-79.7v-0.3c-0.2-1.1-0.5-2.1-0.9-3.1v-0.5c-0.4-1-0.8-2-1.4-2.9l-0.2-0.3c-0.6-0.9-1.2-1.9-1.9-2.7l0,0
	c-0.7-0.9-1.5-1.6-2.4-2.4l0,0c-0.8-0.7-1.8-1.3-2.7-1.9l-0.3-0.2c-0.9-0.5-1.9-1-2.9-1.4h-0.5c-1-0.4-2-0.7-3.1-0.9h-0.3v-21.9
	c17.9-3.6,30.8-19.3,30.9-37.6c0,0,0-0.2,0-0.3c0-3.7-0.5-7.3-1.6-10.8c1.9-0.8,3.6-2.1,5-3.6l9.4-1c2-0.2,3.4-2,3.2-3.9
	c-0.1-0.8-0.5-1.6-1.1-2.2l-8.5-8.3c-1.2-3-3.3-5.5-6.1-7.2c0-4-1.5-7.9-4.3-10.8c-4-3.5-9.1-5.5-14.4-5.4c-2,0.1-3.6,1.7-3.5,3.7
	c0,1.2,0.7,2.4,1.8,3c3.1,2.3,4.7,6.1,4.2,9.9c-4.1,2.8-6.5,7.4-6.5,12.3c0,1,0.1,2.1,0.3,3.1L138,153.8h-13
	c-3.1-8-12.1-12.1-20.1-9c-4.1,1.6-7.4,4.9-9,9c-0.7,1.9,0.2,3.9,2.1,4.6c0,0,0,0,0,0l3.6,1.4c1.3,20.2,18,35.9,38.2,36v20.6h-0.3
	c-1.1,0.2-2.1,0.5-3.1,0.9H136c-1,0.4-2,0.8-2.9,1.4l-0.3,0.2c-0.9,0.6-1.9,1.2-2.7,1.9l0,0c-0.9,0.7-1.6,1.5-2.4,2.4l0,0
	c-0.7,0.8-1.3,1.8-1.9,2.7l-0.2,0.3c-0.5,0.9-1,1.9-1.4,2.9v0.5c-0.4,1-0.7,2-0.9,3.1v0.3H93.6L74.5,220c-1.6-1.1-3.9-0.8-5,0.9
	c-1.1,1.6-0.8,3.9,0.9,5c0,0,0,0,0.1,0l10.4,7.2h-7.4L54.6,220c-1.6-1.2-3.9-0.8-5.1,0.9c-1.2,1.6-0.8,3.9,0.9,5.1l10.2,7.2h-7.2
	L34.6,220c-1.6-1.1-3.9-0.8-5,0.9c-1.1,1.6-0.8,3.9,0.9,5c0,0,0,0,0.1,0l10.4,7.2H22.3c-2,0-3.6,1.6-3.6,3.6s1.6,3.6,3.6,3.6h21.1
	L30.6,249c-1.6,1.1-2,3.4-0.9,5c1.1,1.6,3.3,2,4.9,0.9l20.7-14.4c0.2-0.2,0.4-0.3,0.5-0.5h7.8l-13.2,9.2c-1.6,1.1-2,3.4-0.9,5
	c1.1,1.6,3.3,2,4.9,0.9l20.7-14.4c0.3-0.2,0.5-0.4,0.8-0.7h7.2l-12.9,8.9c-1.6,1.1-2,3.4-0.9,5c1.1,1.6,3.3,2,4.9,0.9L95,240.4
	c0.2-0.2,0.4-0.3,0.5-0.5h27.3v0.3c0.2,1.1,0.5,2.1,0.9,3.1v0.5c0.4,1,0.8,2,1.4,2.9l0.2,0.4c0.6,0.9,1.2,1.9,1.9,2.7l0,0
	c0.7,0.9,1.5,1.6,2.4,2.4l0,0c0.8,0.7,1.8,1.3,2.7,1.9l0.4,0.2c0.9,0.5,1.9,1,2.9,1.4h0.5c1,0.4,2,0.7,3.1,0.9h0.3v68
	c0,2,1.6,3.6,3.6,3.6c2,0,3.6-1.6,3.6-3.6V257h0.3c1.1-0.2,2.1-0.5,3.1-0.9h0.5c1-0.4,2-0.8,2.9-1.4l0.4-0.2
	c0.9-0.6,1.9-1.2,2.7-1.9l0,0c0.9-0.7,1.6-1.5,2.4-2.4l0,0c0.7-0.8,1.3-1.8,1.9-2.7l0.2-0.4c0.5-0.9,1-1.9,1.4-2.9v-0.5
	c0.4-1,0.7-2,0.9-3.1v-0.6h80.4c-11.5,7.7-21.5,17.5-29.6,28.8c-1,1.7-0.5,3.9,1.2,5c1.6,1,3.6,0.6,4.7-0.9
	c0.2-0.3,23-32.7,45.8-32.7c2,0,3.6-1.6,3.6-3.6s-1.6-3.6-3.6-3.6L265.7,233z M169.2,113.9c1,1,1.6,2.2,1.9,3.6h-1.6
	c-0.1-1.2-0.3-2.4-0.6-3.6H169.2z M108.8,158L108.8,158c0.3-1.7-0.6-3.4-2.3-4l-1.8-0.7c2.4-2.2,5.8-2.9,8.8-1.8
	c2.8,1,4.8,3.4,5.3,6.3c0.3,1.7,1.8,3,3.6,3h17.2c1,0,1.9-0.4,2.6-1l20.8-20.8c1-1,1.3-2.5,0.8-3.9c-1.6-3.9,0.3-8.4,4.3-10
	c3.9-1.6,8.4,0.3,10,4.3c1.6,3.9-0.3,8.4-4.3,10c-0.7,0.3-1.4,0.5-2.1,0.5c-2,0.2-3.4,2-3.2,4c0,0.3,0.1,0.7,0.3,1
	c1.6,3.9,2.5,8.1,2.4,12.3c0,0.1,0,0.2,0,0.4c-0.4,17.2-14.7,30.8-31.9,30.4C122.7,187.5,109.5,174.4,108.8,158L108.8,158z
	 M156.7,238.7c0,0.5-0.2,1-0.3,1.5l0,0c-0.3,1.3-0.9,2.6-1.6,3.8v0.3c-0.3,0.4-0.6,0.8-0.9,1.2l-0.6,0.7l-0.6,0.6
	c-0.4,0.3-0.8,0.6-1.2,0.9h-0.3c-1.2,0.8-2.5,1.4-3.8,1.7l-1.5,0.3c-1.4,0.3-2.8,0.3-4.2,0l-1.5-0.3c-1.4-0.4-2.6-1-3.8-1.7H136
	c-0.4-0.3-0.8-0.6-1.2-0.9l-0.7-0.6l-1-0.6c-0.3-0.4-0.6-0.8-0.9-1.2V244c-0.8-1.2-1.4-2.5-1.7-3.8l0,0c0-0.5-0.3-1-0.3-1.5
	c-0.3-1.4-0.3-2.8,0-4.2c0-0.5,0.2-1,0.3-1.5l0,0c0.4-1.3,1-2.6,1.7-3.8l0.2-0.3c0.3-0.4,0.6-0.8,0.9-1.2l0.5-0.5l0.6-0.6
	c0.4-0.3,0.8-0.6,1.2-0.9h0.3c1.2-0.9,2.4-1.6,3.8-2.1l1.5-0.3c1.4-0.3,2.8-0.3,4.2,0l1.5,0.3c1.4,0.4,2.6,1,3.8,1.7h0.3
	c0.4,0.3,0.8,0.6,1.2,0.9l0.6,0.6l0.6,0.7c0.3,0.4,0.6,0.8,0.9,1.2v0.3c0.8,1.2,1.3,2.4,1.7,3.8l0,0c0,0.5,0.3,1,0.3,1.5
	c0.3,1.4,0.3,2.8,0,4.2L156.7,238.7z"/>
<circle fill="#7A7A7A" cx="173.6" cy="129.4" r="2.8"/>
</svg>
